
<svg xmlns="http://www.w3.org/2000/svg" width="300.05499" height="122.64" viewBox="0 0 79.389548 32.448501" version="1.1">
  <g id="layer1" style="fill:#040606">
    <path id="path124" d="m 44.544327,4.5136847 -0.505222,9.988e-4 -1.940316,0.3959708 v 0.3966199 h 0.155844 c 0.53752,0 0.969044,0.4351353 0.969044,0.971643 0.03158,0.175007 0.02949,4.5373868 -0.0085,4.7002388 l -1.116443,0.488513 v 7.19e-4 l -0.22741,0.003 C 41.349671,11.455703 40.931713,11.027589 40.931713,10.50104 V 7.0514612 c 0,-0.6034101 -0.06525,-1.0519599 -0.194365,-1.3458989 C 40.608247,5.4116332 40.342387,5.1500466 39.940299,4.9203031 39.538909,4.6905695 38.942336,4.523773 38.21254,4.523773 c -0.98452,0 -1.707299,0.1871329 -2.173944,0.5662033 C 35.7528,5.3211781 35.555069,5.5432206 35.44473,5.7560637 l -0.0026,7.191e-4 c -0.004,0.00799 -0.007,0.01728 -0.01087,0.02577 -0.06041,0.1242858 -0.09087,0.2454952 -0.09087,0.3634884 0,0.044049 0.0032,0.084901 0.0094,0.1231671 0.04512,0.4939271 0.459442,0.8815175 0.964682,0.8815175 0.536123,0 0.97053,-0.4351652 0.97053,-0.9709937 0,-0.3665748 -0.204626,-0.685465 -0.504108,-0.8503337 0.22864,-0.2843003 0.644902,-0.4273444 1.251498,-0.4273444 0.429457,0 0.778098,0.0864 1.042651,0.2593392 0.26385,0.1729794 0.585882,0.4129511 0.585882,0.81905 v 0.4853571 l -7.18e-4,0.011586 V 6.429143 c 0,0.5689401 -1.095994,1.5270089 -2.215251,1.7655322 -1.999222,0.4263755 -2.438671,1.2669305 -2.438671,2.1939948 0,0.453405 0.173391,0.976438 0.517938,1.252797 0.345248,0.275691 0.811954,0.413611 1.289833,0.413611 0.373317,0 0.797144,-0.102092 1.270802,-0.310211 0.475771,-0.206091 0.999946,-0.514133 1.573957,-0.92226 0.06877,0.408806 0.216126,0.7155 0.444888,0.92226 0.227364,0.20744 0.53604,0.310211 0.926904,0.310211 0.390864,0 0.870283,-0.181839 0.870283,-0.181839 v -0.002 l 0.265374,-0.007 h 3.502764 v -0.3963 L 44.54422,10.979435 V 6.5717676 c 0.324897,-0.4669085 0.669495,-0.8229455 1.034389,-1.0621381 0.381044,-0.25001 0.783785,-0.3743458 1.203417,-0.3743458 0.367707,0 0.67231,0.091794 0.910196,0.2769688 0.237882,0.1831176 0.495382,0.5372468 0.495382,1.0325423 v 4.5414222 l -1.1894,0.48313 v 0.393274 h 3.613219 v -0.393274 l -1.112267,-0.48313 V 7.2542759 c 0,-0.6547605 -0.0526,-1.1534022 -0.155752,-1.4959848 C 49.240247,5.4163877 49.008671,5.1257947 48.649386,4.8919959 48.2901,4.654831 47.78622,4.5156124 47.222737,4.5156124 c -0.49402,0 -0.967648,0.1196113 -1.423771,0.36219 -0.436477,0.2324404 -0.854763,0.5817852 -1.254746,1.0432999 z m -4.885231,2.8688924 0.0019,3.596e-4 v 0.1769148 2.7250195 a 4.310011,4.150188 0 0 1 -1.026498,0.695313 c -0.357179,0.178393 -0.839368,0.380469 -1.108833,0.380469 -0.304545,0 -0.526225,-0.07771 -0.745162,-0.269637 -0.407705,-0.356097 -0.843505,-1.908097 0.967652,-2.485827 0.874251,-0.2788265 1.885238,-0.916407 1.910986,-1.2226219 z"></path>
    <path d="M 34.232463,11.155231 30.805226,7.7152113 32.896372,5.6232278 c 0.420335,-0.4202926 1.024524,-0.7094971 1.66099,-0.7317913 l -0.0028,-0.3804187 h -2.641301 l 0.0028,0.3743358 c 0.268764,0 0.484893,0.2135223 0.484893,0.4804328 A 0.51927847,0.50002265 0 0 1 32.292186,5.6712021 L 30.526641,7.4354758 28.791267,5.6955239 A 0.51155945,0.49258989 0 0 1 28.668461,5.373887 c 0,-0.2682489 0.216135,-0.4858265 0.484898,-0.4858265 l 0.02035,0.003 V 4.5106382 l -3.082694,0.003 v 0.3777119 c 0.245606,0 0.449107,0.095989 0.619627,0.246634 l 3.049707,3.0629773 -2.999185,2.9879746 -0.670852,0.27569 v 0.397989 h 2.562711 v -0.397989 l -1.112241,-0.490571 h -0.0056 l 2.503061,-2.4933481 2.485517,2.4933481 h -0.01267 l -1.190829,0.490571 v 0.397989 h 3.614608 V 11.464622 L 34.23249,11.155821" id="path130"></path>
    <path d="M 19.220404,11.862022 V 11.469437 L 18.114476,10.985628 V 0 h -0.505242 l -1.940276,0.39798838 v 0.39597073 h 0.155782 c 0.535421,0 0.977507,0.44055899 0.977507,0.97706669 h 0.0071 l 0.0028,9.2152812 -1.10593,0.48313 v 0.393264 l 3.51426,-7.19e-4" id="path132"></path>
    <path d="m 70.925095,5.1263141 c -0.0842,0.1435036 -0.13192,0.3126074 -0.13192,0.4911403 0,0.5335912 0.433699,0.9674579 0.969077,0.9674579 0.536139,0 0.970519,-0.4338667 0.970519,-0.9674579 0,-0.1394582 -0.03015,-0.2708358 -0.08281,-0.3907567 A 1.3283704,1.2753477 0 0 0 72.399453,4.8507637 C 72.180473,4.6149672 71.881602,4.497064 71.503322,4.497064 c -0.42033,0 -0.84979,0.1731491 -1.290468,0.5167406 A 3.0398838,2.9185451 0 0 0 69.379897,6.0344907 V 4.497064 H 68.866232 L 66.92596,4.8938837 V 5.289355 h 0.15578 c 0.535423,0 0.969088,0.4338768 0.969088,0.9667886 v 4.6964824 l -1.116452,0.476997 v 0.396141 h 3.570388 v -0.396141 l -1.124867,-0.485077 c -0.02033,-0.195384 -0.05054,-0.784211 -0.05054,-1.5360787 V 8.1540024 c 0,-0.6312678 0.04773,-1.1284711 0.145959,-1.4882439 0.09825,-0.3611111 0.321386,-0.7100963 0.665232,-1.044928 0.298236,-0.2903732 0.559978,-0.4540933 0.784532,-0.4945164" id="path134"></path>
    <path d="M 7.165422,7.1584271 9.23201,2.1764456 11.25439,7.1584271 Z m 7.429893,3.8278799 h -0.0014 L 10.132333,0.00202765 9.6783144,2.9965244e-5 5.2455009,10.712005 4.8532358,10.977557 3.7367868,11.468798 v 0.392584 H 7.3071766 V 11.468798 L 6.1823083,10.976888 C 5.9093359,10.857956 5.8131984,10.732951 5.8131984,10.505914 c 0,-0.06762 0.014733,-0.127701 0.038595,-0.185814 l 1.14943,-2.7731036 h 4.4103626 l 1.39363,3.4380026 -1.184523,0.483799 v 0.392584 h 4.082653 V 11.468798 L 14.59532,10.986347" id="path138"></path>
    <path d="m 24.511429,6.8408455 c -0.01609,0.1243358 -0.02315,0.1865036 -0.04135,0.3196093 h -3.372503 v -9.989e-4 l 0.03158,-0.3182508 c 0.2021,-1.2993829 0.824531,-1.9507674 1.872211,-1.9507674 0.430862,0 0.794359,0.1391985 1.090487,0.4196133 0.294021,0.2790663 0.442789,0.671651 0.442789,1.1770847 a 2.3928912,2.3041584 0 0 1 -0.02313,0.3540694 z M 23.071487,4.511687 c -0.983124,0 -1.802745,0.3689421 -2.457452,1.1088339 -0.655416,0.7385534 -0.983123,1.6656181 -0.983123,2.7812141 0,0.7878662 0.169821,1.4574895 0.508054,2.010218 0.340334,0.55205 0.775405,0.979774 1.30802,1.281144 a 3.2749629,3.1535212 0 0 0 1.695371,0.454753 c 0.642782,0 1.237848,-0.165548 1.784493,-0.497323 a 2.4960452,2.4034872 0 0 0 1.096102,-1.375744 h -0.414723 c -0.436475,0.938561 -1.178902,1.406149 -2.225176,1.406149 -0.769799,0 -1.349424,-0.311499 -1.738183,-0.935176 -0.386652,-0.623676 -0.58103,-1.556824 -0.58103,-2.8001319 0,-0.1006733 0.0042,-0.2344681 0.01266,-0.3973092 h 4.556314 l 0.38668,-0.3865017 C 25.985059,6.5151632 25.7177,5.9137807 25.219473,5.3576758 24.712824,4.7941394 23.997063,4.511687 23.071487,4.511687" id="path140"></path>
    <path d="M 64.74288,6.8408455 C 64.7261,6.9651813 64.71761,7.0273491 64.7015,7.1604548 h -3.371805 v -9.989e-4 l 0.03162,-0.3182508 c 0.202802,-1.2993829 0.824535,-1.9507674 1.872213,-1.9507674 0.429454,0 0.794352,0.1391985 1.090481,0.4196133 0.294727,0.2790663 0.443493,0.671651 0.443493,1.1770847 0,0.1040593 -0.0099,0.2283851 -0.02453,0.3540694 z M 63.302235,4.511687 c -0.984532,0 -1.80204,0.3689421 -2.457449,1.1088339 -0.655416,0.7385534 -0.983127,1.6656181 -0.983127,2.7812141 0,0.7878662 0.169122,1.4574895 0.508057,2.010218 0.338229,0.55205 0.774699,0.979774 1.306613,1.281144 a 3.2791733,3.1575756 0 0 0 1.695375,0.454753 c 0.643479,0 1.237845,-0.165548 1.784493,-0.497323 a 2.4827124,2.3906487 0 0 0 1.0947,-1.375744 h -0.413323 c -0.437878,0.938561 -1.178202,1.406149 -2.225177,1.406149 -0.771203,0 -1.349423,-0.311499 -1.737478,-0.935176 -0.388055,-0.623676 -0.58244,-1.556824 -0.58244,-2.8001319 0,-0.1006733 0.0054,-0.2344681 0.01404,-0.3973092 h 4.556323 L 66.249497,7.1618132 C 66.215137,6.5151632 65.949149,5.9137807 65.449523,5.3576758 64.94358,4.7941394 64.227816,4.511687 63.302239,4.511687" id="path144"></path>
    <path d="m 57.008437,10.386273 c -0.31648,0.41422 -0.669446,0.723691 -1.042063,0.932479 a 2.4139432,2.3244296 0 0 1 -1.215396,0.309481 c -0.656817,0 -1.206269,-0.275021 -1.651166,-0.820309 -0.446298,-0.545297 -0.669449,-1.3946622 -0.669449,-2.5440391 0,-1.1331557 0.217535,-1.9507673 0.651205,-2.4501082 0.435075,-0.50002 0.976805,-0.75003 1.625904,-0.75003 0.384545,0 0.76839,0.081805 1.151535,0.2459547 a 4.4468482,4.2819509 0 0 1 1.14943,0.737195 z m 2.409732,1.077081 -1.105921,-0.490561 V 0 h -0.503843 l -1.940982,0.39798838 v 0.39597073 h 0.15579 c 0.535413,0 0.977506,0.44055899 0.977506,0.97706669 h 0.0085 v 3.7758505 c 0,0 -0.781728,-0.6034101 -1.207673,-0.7763895 C 55.37558,4.5975075 54.924372,4.511687 54.446495,4.511687 c -0.936106,0 -1.744493,0.3554278 -2.423769,1.065594 -0.677164,0.7094871 -1.017507,1.6406171 -1.017507,2.7906632 0,1.0453176 0.333327,1.9372528 0.997155,2.6744478 0.663839,0.735167 1.453982,1.13789 2.366933,1.13789 0.482789,0 0.950138,-0.105417 1.402051,-0.31894 0.419628,-0.19798 0.839966,-0.506103 1.237845,-0.88787 v 0.493258 l 0.394371,0.394612 h 2.016068 v -0.397988" id="path146"></path>
    <path id="path148" d="m 18.841211,20.794841 a 3.4707303,3.3414721 0 0 0 -0.04962,1.59e-4 c -1.014316,0 -1.89103,0.360432 -2.6328,1.079319 -0.743174,0.720224 -1.113298,1.658256 -1.113298,2.814685 0,1.128701 0.342672,2.03425 1.032464,2.719316 0.686279,0.685744 1.534209,1.028617 2.541501,1.028617 1.565728,0 2.544126,-0.670932 2.935382,-2.014014 h -0.379873 c -0.309772,1.037406 -1.034006,1.555515 -2.175464,1.555515 -0.844327,0 -1.477965,-0.312427 -1.893806,-0.941368 -0.417247,-0.626903 -0.627275,-1.495935 -0.627275,-2.607046 0,-1.075283 0.193209,-1.882696 0.58306,-2.416956 0.38915,-0.535609 0.967923,-0.803429 1.739898,-0.803429 0.431295,0 0.720642,0.06612 0.870963,0.1987 0.0197,0.01798 0.03846,0.03835 0.0567,0.06013 -0.25277,0.175347 -0.418353,0.466819 -0.418353,0.798065 6.68e-4,0.535618 0.436204,0.971273 0.973566,0.971273 0.534553,0 0.970023,-0.435655 0.970023,-0.971273 0,-0.05414 -0.0055,-0.106846 -0.01399,-0.158567 -0.02864,-0.355387 -0.283384,-0.659275 -0.764981,-0.910503 a 3.4707303,3.3414721 0 0 0 -1.6341,-0.402613 z"></path>
    <path d="m 14.002336,16.668387 h 1.043114 v -0.388859 h -3.645634 v 0.002 L 7.4914678,25.935977 3.5571302,16.281485 H 0 v 0.386832 h 0.94266762 c 0.53736268,0 0.97146718,0.434835 0.97146718,0.971803 l -0.0042,8.009789 c 0,0.779077 -0.4614997,1.452645 -1.1245976,1.762376 l -0.76354738,0.340166 v 0.398328 H 4.1851238 V 27.752451 L 3.423685,27.417699 C 2.7591817,27.109317 2.3047068,26.428986 2.3047068,25.64924 l -0.0014,-8.062548 4.2890673,10.564756 h 0.493108 L 11.349964,17.66582 v 9.609184 l -1.118275,0.484209 H 9.4533902 v 0.392914 H 15.045473 V 27.759213 H 14.16181 l -1.127407,-0.484209 -0.0042,-9.634884 c 0,-0.536968 0.435509,-0.971803 0.972168,-0.971803" id="path152"></path>
    <path d="m 46.847485,16.668387 c -0.538064,0 -0.97217,0.431459 -0.97217,0.967078 v 5.421692 c 0,0.996823 -0.01617,1.86178 -0.09483,2.345989 -0.07727,0.485566 -0.302047,0.960316 -0.672933,1.426265 -0.371587,0.466629 -0.895604,0.837908 -1.56994,1.115177 -0.673635,0.27592 -1.45053,0.41388 -2.331382,0.41388 -1.043115,0 -1.925376,-0.176506 -2.648882,-0.531554 -0.722102,-0.354369 -1.239096,-0.812198 -1.546059,-1.373507 -0.309072,-0.560639 -0.462202,-1.458728 -0.462202,-2.404161 l 0.0028,-0.990741 v -5.42304 c 0,-0.535619 -0.433403,-0.966399 -0.970063,-0.966399 h -0.583021 v -0.389538 h 4.801845 v 0.389538 h -0.583022 c -0.537362,0 -0.971467,0.43078 -0.971467,0.966399 v 5.422361 c 0,1.278836 0.05481,2.163401 0.173502,2.699688 0.118712,0.536288 0.450963,1.004945 0.999564,1.403952 0.545089,0.399676 1.275623,0.600524 2.183871,0.600524 0.71578,0 1.36483,-0.133226 1.949256,-0.401025 0.584426,-0.26781 1.019233,-0.602561 1.305825,-1.002238 0.283785,-0.401035 0.458691,-0.811529 0.521208,-1.236236 0.06322,-0.42267 0.108882,-1.153722 0.108882,-2.064665 v -5.421692 c 0,-0.535608 -0.436916,-0.967068 -0.974979,-0.967068 h -0.581616 v -0.388859 h 3.497422 l -0.0014,0.388859 h -0.580213" id="path154"></path>
    <path d="m 75.17176,16.279528 v 0.386831 h 0.94267 c 0.536667,0 0.971477,0.435515 0.971477,0.971134 l -0.004,7.75957 -6.888774,-9.118214 h -3.310571 v 0.386152 h 0.911058 c 0.53666,0 0.970065,0.436204 0.970065,0.971133 v 8.013176 c 0,0.779066 -0.460098,1.452645 -1.124602,1.762376 l -0.756521,0.346248 v 0.392915 h 4.162626 v -0.39697 l -0.762249,-0.33611 C 69.619845,27.108717 69.15413,26.427707 69.15413,25.647962 l -0.0013,-8.013176 7.927687,10.507952 h 0.395468 l -0.0013,-10.507952 c 0,-0.535609 0.434094,-0.971134 0.970767,-0.971134 h 0.944062 v -0.386831 l -4.217423,0.003" id="path156"></path>
    <path d="m 55.712917,16.279528 0.268328,2.854559 h -0.39266 v -0.002 a 4.0846586,3.9325359 0 0 0 -0.847838,-1.745435 1.9120276,1.8408191 0 0 0 -1.50883,-0.718207 h -2.573722 v 5.013904 h 2.063754 c 0.536659,0 0.96655,-0.451077 0.96655,-0.988044 v -0.582944 h 0.389149 v 3.534221 h -0.389149 l 0.0056,-0.618782 c 0,-0.53494 -0.43551,-0.952196 -0.97217,-0.952196 h -2.063752 v 5.199869 l 1.122491,0.484218 h 1.913431 l 1.113361,-0.48219 a 4.031976,3.8818156 0 0 0 1.950663,-2.649637 l 0.394067,-0.002 -0.333656,3.52677 h -8.968689 v -0.392895 l 1.126004,-0.484218 v -9.640269 c 0,-0.535608 -0.435512,-0.966389 -0.971467,-0.966389 h -0.58302 v -0.388859 h 4.801843" id="path158"></path>
    <path d="m 65.442339,16.279528 0.270439,2.854559 h -0.394765 v -0.002 A 4.0888731,3.9365937 0 0 0 64.47228,17.386654 1.9148373,1.8435241 0 0 0 62.961343,16.668447 h -2.573021 v 5.013904 h 2.063755 c 0.536661,0 0.967251,-0.451077 0.967251,-0.988044 v -0.582944 h 0.38915 v 3.534211 h -0.38915 l 0.004,-0.618792 c 0,-0.53494 -0.434808,-0.952196 -0.97147,-0.952196 h -2.063751 v 5.199869 l 1.123896,0.484218 h 1.912729 l 1.112663,-0.48219 a 4.0298687,3.8797865 0 0 0 1.951373,-2.649647 l 0.394765,-0.002 -0.332248,3.52677 h -8.970602 v -0.392885 l 1.125302,-0.484218 v -9.640249 c 0,-0.535608 -0.435509,-0.966399 -0.970766,-0.966399 H 57.1522 v -0.388859 h 4.802544" id="path160"></path>
    <path d="m 28.71132,27.92565 c -1.501102,0 -2.62851,-0.470684 -3.380116,-1.414769 -0.750903,-0.944075 -1.127407,-2.357486 -1.127407,-4.238884 0,-1.852991 0.376504,-3.253556 1.127407,-4.200338 0.750904,-0.946782 1.831249,-1.419503 3.241736,-1.419503 1.432967,0 2.526659,0.484887 3.281776,1.453993 0.752309,0.970455 1.129516,2.365606 1.129516,4.183428 0,1.87058 -0.382828,3.277908 -1.147778,4.222662 -0.764952,0.942047 -1.807365,1.413411 -3.125134,1.413411 z m 7.510434,3.022274 c -0.748094,0 -1.760302,-0.221143 -3.038732,-0.664779 -1.663368,-0.575512 -3.132861,-0.862929 -4.410588,-0.862929 -0.133464,0 -0.286593,0.009 -0.465716,0.02497 l 2.581449,-1.424907 c 1.321982,-0.413201 2.333488,-1.138849 3.033816,-2.174897 0.69822,-1.03538 1.048734,-2.226977 1.048734,-3.574115 0,-1.157777 -0.269032,-2.212094 -0.804288,-3.16429 -0.535957,-0.952195 -1.323386,-1.671071 -2.365098,-2.159335 -1.04171,-0.486246 -2.121351,-0.729704 -3.236819,-0.729704 -1.812985,0 -3.323219,0.547785 -4.527894,1.646051 -1.206082,1.095569 -1.809474,2.544818 -1.809474,4.346419 0,1.859753 0.595666,3.348236 1.783483,4.468137 1.187818,1.118563 2.721935,1.679193 4.605163,1.679193 0.311178,0 0.601986,-0.01488 0.871018,-0.04255 l -1.597336,0.914319 c -0.143296,0.08051 -0.287997,0.154871 -0.431295,0.22453 -0.684875,0.333403 -1.151291,0.576861 -1.398548,0.729024 -0.247257,0.153512 -0.36948,0.300262 -0.36948,0.444984 0,0.19003 0.102556,0.28471 0.309774,0.28471 0.133463,0 0.37229,-0.144043 0.717184,-0.43146 0.516992,-0.437552 1.054356,-0.656658 1.605768,-0.656658 0.92089,0 2.071479,0.43957 3.452467,1.320079 0.771975,0.489632 1.397844,0.829118 1.879013,1.018469 0.481167,0.190708 1.014315,0.285389 1.601552,0.285389 0.892092,0 1.619815,-0.248192 2.182463,-0.743218 0.565462,-0.494357 0.895606,-1.139529 0.992541,-1.933478 h -0.362456 c -0.194573,0.783811 -0.810609,1.176046 -1.846701,1.176046" id="path162"></path>
  </g>
</svg>